<svg aria-hidden="true" style="position: absolute; width: 0; height: 0; overflow: hidden;" version="1.1" xmlns="http://www.w3.org/2000/svg" xmlns:xlink="http://www.w3.org/1999/xlink">
<defs>
<svg id="icon-cart" viewBox="0 0 24 24"><path fill="none" d="M0 0h24v24H0z"/><path d="M4 6.414L.757 3.172l1.415-1.415L5.414 5h15.242a1 1 0 0 1 .958 1.287l-2.4 8a1 1 0 0 1-.958.713H6v2h11v2H5a1 1 0 0 1-1-1V6.414zM6 7v6h11.512l1.8-6H6zm-.5 16a1.5 1.5 0 1 1 0-3 1.5 1.5 0 0 1 0 3zm12 0a1.5 1.5 0 1 1 0-3 1.5 1.5 0 0 1 0 3z"/></svg>
<svg id="icon-menu" viewBox="0 0 24 24"><path fill="none" d="M0 0h24v24H0z"/><path d="M18 18v2H6v-2h12zm3-7v2H3v-2h18zm-3-7v2H6V4h12z"/></svg>
<svg id="icon-close" viewBox="0 0 24 24"><path fill="none" d="M0 0h24v24H0z"/><path d="M12 10.586l4.95-4.95 1.414 1.414-4.95 4.95 4.95 4.95-1.414 1.414-4.95-4.95-4.95 4.95-1.414-1.414 4.95-4.95-4.95-4.95L7.05 5.636z"/></svg>
<svg id="icon-add" viewBox="0 0 24 24"><path fill="none" d="M0 0h24v24H0z"/><path d="M11 11V5h2v6h6v2h-6v6h-2v-6H5v-2z"/></svg>
<svg id="icon-minus" viewBox="0 0 24 24"><path fill="none" d="M0 0h24v24H0z"/><path d="M5 11h14v2H5z"/></svg>
<svg id="icon-trash" viewBox="0 0 24 24" ><path fill="none" d="M0 0h24v24H0z"/><path d="M17 6h5v2h-2v13a1 1 0 0 1-1 1H5a1 1 0 0 1-1-1V8H2V6h5V3a1 1 0 0 1 1-1h8a1 1 0 0 1 1 1v3zm1 2H6v12h12V8zm-9 3h2v6H9v-6zm4 0h2v6h-2v-6zM9 4v2h6V4H9z"/></svg>
<svg id="icon-home" viewBox="0 0 24 24"><path fill="none" d="M0 0h24v24H0z"/><path d="M19 21H5a1 1 0 0 1-1-1v-9H1l10.327-9.388a1 1 0 0 1 1.346 0L23 11h-3v9a1 1 0 0 1-1 1zm-6-2h5V9.157l-6-5.454-6 5.454V19h5v-6h2v6z"/></svg>
<svg id="icon-shopping-bag" viewBox="0 0 24 24"><path fill="none" d="M0 0h24v24H0z"/><path d="M7 8V6a5 5 0 1 1 10 0v2h3a1 1 0 0 1 1 1v12a1 1 0 0 1-1 1H4a1 1 0 0 1-1-1V9a1 1 0 0 1 1-1h3zm0 2H5v10h14V10h-2v2h-2v-2H9v2H7v-2zm2-2h6V6a3 3 0 0 0-6 0v2z"/></svg>
<svg id="icon-arrow-right" viewBox="0 0 24 24"><path fill="none" d="M0 0h24v24H0z"/><path d="M13.172 12l-4.95-4.95 1.414-1.414L16 12l-6.364 6.364-1.414-1.414z"/></svg>
<svg id="icon-check" viewBox="0 0 24 24"><path fill="none" d="M0 0h24v24H0z"/><path d="M10 15.172l9.192-9.193 1.415 1.414L10 18l-6.364-6.364 1.414-1.414z"/></svg>
<svg id="icon-eye" viewBox="0 0 24 24"><path fill="none" d="M0 0h24v24H0z"/><path d="M1.181 12C2.121 6.88 6.608 3 12 3c5.392 0 9.878 3.88 10.819 9-.94 5.12-5.427 9-10.819 9-5.392 0-9.878-3.88-10.819-9zM12 17a5 5 0 1 0 0-10 5 5 0 0 0 0 10zm0-2a3 3 0 1 1 0-6 3 3 0 0 1 0 6z"/></svg>
<svg id="icon-wishlist" viewBox="0 0 24 24"><path fill="none" d="M0 0H24V24H0z"/><path d="M12.001 4.529c2.349-2.109 5.979-2.039 8.242.228 2.262 2.268 2.34 5.88.236 8.236l-8.48 8.492-8.478-8.492c-2.104-2.356-2.025-5.974.236-8.236 2.265-2.264 5.888-2.34 8.244-.228zm6.826 1.641c-1.5-1.502-3.92-1.563-5.49-.153l-1.335 1.198-1.336-1.197c-1.575-1.412-3.99-1.35-5.494.154-1.49 1.49-1.565 3.875-.192 5.451L12 18.654l7.02-7.03c1.374-1.577 1.299-3.959-.193-5.454z"/></svg>
<svg id="icon-wishlist-fill" viewBox="0 0 24 24" width="24" height="24"><path fill="none" d="M0 0H24V24H0z"/><path d="M12.001 4.529c2.349-2.109 5.979-2.039 8.242.228 2.262 2.268 2.34 5.88.236 8.236l-8.48 8.492-8.478-8.492c-2.104-2.356-2.025-5.974.236-8.236 2.265-2.264 5.888-2.34 8.244-.228z"/></svg>
<svg id="icon-search" viewBox="0 0 24 24"><path fill="none" d="M0 0h24v24H0z"/><path d="M18.031 16.617l4.283 4.282-1.415 1.415-4.282-4.283A8.96 8.96 0 0 1 11 20c-4.968 0-9-4.032-9-9s4.032-9 9-9 9 4.032 9 9a8.96 8.96 0 0 1-1.969 5.617zm-2.006-.742A6.977 6.977 0 0 0 18 11c0-3.868-3.133-7-7-7-3.868 0-7 3.132-7 7 0 3.867 3.132 7 7 7a6.977 6.977 0 0 0 4.875-1.975l.15-.15z"/></svg>
<svg id="icon-arrow-up" viewBox="0 0 24 24"><path fill="none" d="M0 0h24v24H0z"/><path d="M12 10.828l-4.95 4.95-1.414-1.414L12 8l6.364 6.364-1.414 1.414z"/></svg>
<svg id="icon-arrow-down" viewBox="0 0 24 24"><path fill="none" d="M0 0h24v24H0z"/><path d="M12 13.172l4.95-4.95 1.414 1.414L12 16 5.636 9.636 7.05 8.222z"/></svg>
<svg id="icon-warning" viewBox="0 0 24 24"><path fill="none" d="M0 0h24v24H0z"/><path d="M12 22C6.477 22 2 17.523 2 12S6.477 2 12 2s10 4.477 10 10-4.477 10-10 10zm0-2a8 8 0 1 0 0-16 8 8 0 0 0 0 16zm-1-5h2v2h-2v-2zm0-8h2v6h-2V7z"/></svg>
<svg id="icon-star" viewBox="0 0 24 24"><path fill="none" d="M0 0h24v24H0z"/><path d="M12 18.26l-7.053 3.948 1.575-7.928L.587 8.792l8.027-.952L12 .5l3.386 7.34 8.027.952-5.935 5.488 1.575 7.928L12 18.26zm0-2.292l4.247 2.377-.949-4.773 3.573-3.305-4.833-.573L12 5.275l-2.038 4.42-4.833.572 3.573 3.305-.949 4.773L12 15.968z"/></svg>
<svg id="icon-star-fill" viewBox="0 0 24 24"><path fill="none" d="M0 0h24v24H0z"/><path d="M12 18.26l-7.053 3.948 1.575-7.928L.587 8.792l8.027-.952L12 .5l3.386 7.34 8.027.952-5.935 5.488 1.575 7.928z"/></svg>
<svg id="icon-star-half" viewBox="0 0 24 24"><path fill="none" d="M0 0h24v24H0z"/><path d="M12 15.968l4.247 2.377-.949-4.773 3.573-3.305-4.833-.573L12 5.275v10.693zm0 2.292l-7.053 3.948 1.575-7.928L.587 8.792l8.027-.952L12 .5l3.386 7.34 8.027.952-5.935 5.488 1.575 7.928L12 18.26z"/></svg>
<svg id="icon-all-color" viewBox="0 0 24 24"><path fill="none" d="M0 0h24v24H0z"/><path d="M7 11.5a4.5 4.5 0 1 1 0-9 4.5 4.5 0 0 1 0 9zm0 10a4.5 4.5 0 1 1 0-9 4.5 4.5 0 0 1 0 9zm10-10a4.5 4.5 0 1 1 0-9 4.5 4.5 0 0 1 0 9zm0 10a4.5 4.5 0 1 1 0-9 4.5 4.5 0 0 1 0 9z"/></svg>
<svg id="icon-home" viewBox="0 0 24 24"><path fill="none" d="M0 0h24v24H0z"/><path d="M19 21H5a1 1 0 0 1-1-1v-9H1l10.327-9.388a1 1 0 0 1 1.346 0L23 11h-3v9a1 1 0 0 1-1 1zm-6-2h5V9.157l-6-5.454-6 5.454V19h5v-6h2v6z"/></svg>
<svg id="icon-shopping-bag" viewBox="0 0 24 24"><path fill="none" d="M0 0h24v24H0z"/><path d="M6.5 2h11a1 1 0 0 1 .8.4L21 6v15a1 1 0 0 1-1 1H4a1 1 0 0 1-1-1V6l2.7-3.6a1 1 0 0 1 .8-.4zM19 8H5v12h14V8zm-.5-2L17 4H7L5.5 6h13zM9 10v2a3 3 0 0 0 6 0v-2h2v2a5 5 0 0 1-10 0v-2h2z"/></svg>
<svg id="icon-info" viewBox="0 0 24 24"><path fill="none" d="M0 0h24v24H0z"/><path d="M12 22C6.477 22 2 17.523 2 12S6.477 2 12 2s10 4.477 10 10-4.477 10-10 10zm0-2a8 8 0 1 0 0-16 8 8 0 0 0 0 16zM11 7h2v2h-2V7zm0 4h2v6h-2v-6z"/></svg>
</defs>
</svg>