<svg aria-hidden="true" style="position: absolute; width: 0; height: 0; overflow: hidden;" version="1.1" xmlns="http://www.w3.org/2000/svg" xmlns:xlink="http://www.w3.org/1999/xlink">
<defs>
<svg id="icon-cart" viewBox="0 0 24 24"><path fill="none" d="M0 0h24v24H0z"/><path d="M4 6.414L.757 3.172l1.415-1.415L5.414 5h15.242a1 1 0 0 1 .958 1.287l-2.4 8a1 1 0 0 1-.958.713H6v2h11v2H5a1 1 0 0 1-1-1V6.414zM6 7v6h11.512l1.8-6H6zm-.5 16a1.5 1.5 0 1 1 0-3 1.5 1.5 0 0 1 0 3zm12 0a1.5 1.5 0 1 1 0-3 1.5 1.5 0 0 1 0 3z"/></svg>
<svg id="icon-menu" viewBox="0 0 24 24"><path fill="none" d="M0 0h24v24H0z"/><path d="M18 18v2H6v-2h12zm3-7v2H3v-2h18zm-3-7v2H6V4h12z"/></svg>
<svg id="icon-close" viewBox="0 0 24 24"><path fill="none" d="M0 0h24v24H0z"/><path d="M12 10.586l4.95-4.95 1.414 1.414-4.95 4.95 4.95 4.95-1.414 1.414-4.95-4.95-4.95 4.95-1.414-1.414 4.95-4.95-4.95-4.95L7.05 5.636z"/></svg>
</defs>
</svg>